# xmcd
# Track frame offsets:
# 150
# 25050
# 45575
# 74657
# 104010
# 144612
# 162175
# 181512
# 199600
#
# Disc length: 2938 seconds
# Revision: 0
# Processed by: cddbd v1.4PL0 Copyright (c) Steve Scherf et al.
# Submitted via: VisiTrax 2.9.5.181 - For more info visit www.synapsa.com
#
DISCID=780b7809
DTITLE=Albert king - John lee hooker - I'll play the blues for you
DYEAR=1977
DGENRE=Blues
TTITLE0=Albert king - Born under a bad sign
TTITLE1=Albert king - The very thought of you
TTITLE2=Albert king - I worked hard
TTITLE3=Albert king - When you're down
TTITLE4=John lee hooker - Feel good
TTITLE5=John lee hooker - Boom boom
TTITLE6=John lee hooker - Serves me right
TTITLE7=John lee hooker - One bourbon, one scotch, one beer
TTITLE8=John lee hooker - King snake
EXTD=
EXTT0=
EXTT1=
EXTT2=
EXTT3=
EXTT4=
EXTT5=
EXTT6=
EXTT7=
EXTT8=
PLAYORDER=
